<svg width="1512" height="983" viewBox="0 0 1512 983" fill="none" xmlns="http://www.w3.org/2000/svg">
<path opacity="0.0144928" d="M1587.08 1635.24C1596.13 1640.05 1607.27 1638.28 1614.4 1630.91L1840.73 1396.83C1844.94 1392.47 1847.26 1386.63 1847.19 1380.56L1841.57 914.5C1841.52 909.733 1839.98 905.101 1837.17 901.246L1597.03 571.14C1591.94 564.15 1583.37 560.601 1574.83 561.954L1294.38 606.373C1285.84 607.725 1278.78 613.75 1276.11 621.969L1149.72 1010.13C1148.25 1014.66 1148.22 1019.54 1149.64 1024.09L1288.31 1469.08C1290.12 1474.87 1294.13 1479.71 1299.49 1482.55L1587.08 1635.24Z" stroke="url(#paint0_linear_50_60)" stroke-width="4"/>
<path opacity="0.0289855" d="M1535.92 1633.75C1544.7 1638.99 1555.88 1637.82 1563.37 1630.86L1800.29 1410.92C1804.74 1406.79 1807.37 1401.06 1807.62 1395L1826.45 933.566C1826.65 928.789 1825.35 924.069 1822.73 920.064L1601.65 581.087C1596.94 573.856 1588.57 569.875 1579.98 570.777L1299.27 600.281C1290.69 601.184 1283.33 606.818 1280.22 614.871L1134.45 992.406C1132.72 996.867 1132.43 1001.75 1133.62 1006.39L1247.97 1453.82C1249.48 1459.7 1253.24 1464.75 1258.46 1467.87L1535.92 1633.75Z" stroke="url(#paint1_linear_50_60)" stroke-width="4"/>
<path opacity="0.0434783" d="M1485.16 1630.71C1493.64 1636.38 1504.83 1635.79 1512.67 1629.27L1759.31 1423.92C1763.99 1420.03 1766.93 1414.44 1767.5 1408.39L1810.27 952.862C1810.72 948.087 1809.67 943.291 1807.25 939.145L1605.5 592.379C1601.17 584.927 1593.03 580.525 1584.42 580.977L1304.23 595.661C1295.62 596.112 1287.99 601.34 1284.46 609.204L1120.06 975.16C1118.09 979.535 1117.54 984.415 1118.49 989.117L1208.65 1437.68C1209.84 1443.64 1213.35 1448.88 1218.41 1452.26L1485.16 1630.71Z" stroke="url(#paint2_linear_50_60)" stroke-width="4"/>
<path opacity="0.057971" d="M1434.88 1626.15C1443.04 1632.23 1454.21 1632.23 1462.36 1626.15L1717.86 1435.81C1722.75 1432.17 1725.99 1426.75 1726.88 1420.72L1793.03 972.328C1793.74 967.568 1792.93 962.708 1790.72 958.432L1608.51 604.961C1604.56 597.308 1596.67 592.5 1588.06 592.5L1309.18 592.5C1300.57 592.5 1292.68 597.308 1288.74 604.961L1106.52 958.432C1104.32 962.708 1103.51 967.568 1104.21 972.328L1170.37 1420.72C1171.26 1426.75 1174.5 1432.17 1179.38 1435.81L1434.88 1626.15Z" stroke="url(#paint3_linear_50_60)" stroke-width="4"/>
<path opacity="0.0724638" d="M1385.16 1620.13C1392.97 1626.59 1404.09 1627.17 1412.54 1621.56L1676 1446.58C1681.08 1443.21 1684.62 1437.95 1685.82 1431.98L1774.73 991.904C1775.69 987.173 1775.13 982.262 1773.14 977.865L1610.61 618.775C1607.06 610.942 1599.44 605.74 1590.86 605.29L1314.04 590.783C1305.46 590.333 1297.34 594.71 1292.99 602.129L1093.82 942.263C1091.38 946.428 1090.31 951.254 1090.77 956.059L1133.19 1403.01C1133.76 1409.09 1136.73 1414.68 1141.43 1418.57L1385.16 1620.13Z" stroke="url(#paint4_linear_50_60)" stroke-width="4"/>
<path opacity="0.0869565" d="M1336.06 1612.67C1343.52 1619.5 1354.56 1620.66 1363.27 1615.53L1633.79 1456.22C1639.06 1453.12 1642.87 1448.06 1644.4 1442.14L1755.37 1011.53C1756.58 1006.84 1756.27 1001.89 1754.5 997.387L1611.74 633.76C1608.6 625.767 1601.28 620.188 1592.74 619.291L1318.74 590.492C1310.2 589.595 1301.87 593.528 1297.14 600.694L1081.89 926.693C1079.23 930.734 1077.9 935.513 1078.11 940.35L1097.13 1384.62C1097.39 1390.72 1100.07 1396.47 1104.57 1400.6L1336.06 1612.67Z" stroke="url(#paint5_linear_50_60)" stroke-width="4"/>
<path opacity="0.101449" d="M1287.67 1603.83C1294.75 1611.01 1305.68 1612.74 1314.63 1608.1L1591.3 1464.72C1596.73 1461.91 1600.82 1457.04 1602.66 1451.21L1734.95 1031.15C1736.4 1026.52 1736.36 1021.55 1734.82 1016.94L1611.85 649.851C1609.13 641.721 1602.11 635.78 1593.64 634.439L1323.19 591.604C1314.72 590.263 1306.21 593.743 1301.11 600.633L1070.72 911.759C1067.83 915.662 1066.25 920.381 1066.21 925.237L1062.22 1365.61C1062.17 1371.73 1064.55 1377.62 1068.84 1381.97L1287.67 1603.83Z" stroke="url(#paint6_linear_50_60)" stroke-width="4"/>
<path opacity="0.115942" d="M1240.05 1593.67C1246.73 1601.18 1257.52 1603.47 1266.68 1599.33L1548.58 1472.08C1554.17 1469.56 1558.52 1464.91 1560.66 1459.17L1713.47 1050.71C1715.18 1046.15 1715.39 1041.16 1714.08 1036.47L1610.89 666.982C1608.58 658.736 1601.89 652.451 1593.52 650.671L1327.32 594.09C1318.95 592.31 1310.28 595.329 1304.82 601.926L1060.26 897.494C1057.16 901.249 1055.32 905.893 1055.03 910.757L1028.49 1346.06C1028.12 1352.17 1030.2 1358.18 1034.28 1362.76L1240.05 1593.67Z" stroke="url(#paint7_linear_50_60)" stroke-width="4"/>
<path opacity="0.130435" d="M1193.26 1582.24C1199.54 1590.05 1210.16 1592.89 1219.5 1589.27L1505.71 1478.29C1511.43 1476.07 1516.03 1471.65 1518.48 1466.03L1690.96 1070.15C1692.91 1065.67 1693.39 1060.68 1692.31 1055.91L1608.8 685.083C1606.92 676.743 1600.57 670.133 1592.31 667.92L1331.07 597.921C1322.82 595.709 1314.01 598.259 1308.22 604.542L1050.47 883.932C1047.16 887.526 1045.08 892.082 1044.53 896.941L995.961 1326.02C995.271 1332.12 997.047 1338.24 1000.89 1343.02L1193.26 1582.24Z" stroke="url(#paint8_linear_50_60)" stroke-width="4"/>
<path opacity="0.144928" d="M1147.38 1569.59C1153.24 1577.68 1163.65 1581.06 1173.15 1577.96L1462.74 1483.35C1468.58 1481.45 1473.41 1477.28 1476.16 1471.78L1667.42 1089.41C1669.62 1085.03 1670.35 1080.05 1669.52 1075.22L1605.54 704.084C1604.09 695.672 1598.1 688.755 1589.98 686.117L1334.37 603.062C1326.25 600.424 1317.34 602.499 1311.22 608.452L1041.31 871.102C1037.8 874.524 1035.47 878.979 1034.66 883.819L964.647 1305.58C963.641 1311.64 965.103 1317.86 968.708 1322.83L1147.38 1569.59Z" stroke="url(#paint9_linear_50_60)" stroke-width="4"/>
<path opacity="0.15942" d="M1102.45 1555.79C1107.88 1564.14 1118.06 1568.05 1127.69 1565.47L1419.73 1487.29C1425.67 1485.69 1430.74 1481.78 1433.78 1476.43L1642.88 1108.45C1645.31 1104.17 1646.3 1099.22 1645.71 1094.33L1601.08 723.911C1600.06 715.449 1594.45 708.244 1586.49 705.19L1337.14 609.473C1329.18 606.419 1320.19 608.015 1313.77 613.621L1032.74 859.032C1029.03 862.27 1026.46 866.612 1025.4 871.42L934.563 1284.8C933.242 1290.81 934.386 1297.11 937.74 1302.27L1102.45 1555.79Z" stroke="url(#paint10_linear_50_60)" stroke-width="4"/>
<path opacity="0.173913" d="M1058.53 1540.9C1063.52 1549.49 1073.45 1553.91 1083.17 1551.86L1376.74 1490.09C1382.78 1488.82 1388.05 1485.18 1391.38 1479.99L1617.34 1127.19C1620 1123.03 1621.26 1118.13 1620.92 1113.2L1595.38 744.488C1594.79 735.999 1589.56 728.528 1581.79 725.066L1339.32 617.114C1331.55 613.653 1322.5 614.767 1315.8 620.011L1024.7 847.746C1020.81 850.79 1018 855.005 1016.7 859.769L905.717 1263.76C904.083 1269.7 904.906 1276.06 908 1281.39L1058.53 1540.9Z" stroke="url(#paint11_linear_50_60)" stroke-width="4"/>
<path opacity="0.188406" d="M1015.68 1524.99C1020.21 1533.79 1029.86 1538.71 1039.64 1537.2L1333.84 1491.78C1339.95 1490.84 1345.42 1487.48 1349.02 1482.46L1590.84 1145.6C1593.73 1141.58 1595.24 1136.72 1595.15 1131.77L1588.4 765.741C1588.24 757.246 1583.42 749.529 1575.85 745.672L1340.86 625.941C1333.29 622.084 1324.21 622.714 1317.25 627.581L1017.16 837.267C1013.1 840.107 1010.06 844.183 1008.5 848.889L878.113 1242.52C876.171 1248.38 876.669 1254.78 879.494 1260.27L1015.68 1524.99Z" stroke="url(#paint12_linear_50_60)" stroke-width="4"/>
<path opacity="0.202899" d="M973.93 1508.13C977.995 1517.12 987.34 1522.51 997.158 1521.54L1291.09 1492.37C1297.25 1491.76 1302.9 1488.69 1306.77 1483.86L1563.39 1163.63C1566.5 1159.74 1568.27 1154.96 1568.43 1149.98L1580.13 787.591C1580.4 779.113 1575.99 771.172 1568.64 766.931L1341.7 635.905C1334.35 631.664 1325.27 631.811 1318.06 636.287L1010.07 827.615C1005.84 830.24 1002.58 834.165 1000.78 838.8L851.753 1221.16C849.506 1226.93 849.677 1233.35 852.226 1238.99L973.93 1508.13Z" stroke="url(#paint13_linear_50_60)" stroke-width="4"/>
<path opacity="0.217391" d="M933.329 1490.38C936.924 1499.54 945.94 1505.39 955.763 1504.95L1248.53 1491.88C1254.72 1491.6 1260.54 1488.84 1264.67 1484.21L1535.03 1181.21C1538.35 1177.49 1540.37 1172.78 1540.79 1167.8L1570.54 809.961C1571.24 801.521 1567.24 793.379 1560.14 788.766L1341.77 646.957C1334.67 642.345 1325.61 642.009 1318.18 646.082L1003.38 818.807C999 821.209 995.523 824.97 993.472 829.522L826.634 1199.75C824.088 1205.4 823.929 1211.84 826.195 1217.61L933.329 1490.38Z" stroke="url(#paint14_linear_50_60)" stroke-width="4"/>
<path opacity="0.231884" d="M893.912 1471.83C897.031 1481.12 905.694 1487.42 915.494 1487.51L1206.23 1490.33C1212.44 1490.39 1218.4 1487.93 1222.78 1483.53L1505.78 1198.32C1509.31 1194.76 1511.58 1190.15 1512.25 1185.18L1559.61 832.771C1560.73 824.392 1557.17 816.07 1550.33 811.101L1341.04 659.044C1334.2 654.074 1325.19 653.258 1317.57 656.918L997.041 810.856C992.523 813.026 988.838 816.612 986.546 821.068L802.747 1178.36C799.907 1183.88 799.42 1190.31 801.395 1196.2L893.912 1471.83Z" stroke="url(#paint15_linear_50_60)" stroke-width="4"/>
<path opacity="0.246377" d="M855.714 1452.55C858.352 1461.95 866.641 1468.66 876.388 1469.29L1164.23 1487.74C1170.44 1488.14 1176.54 1486 1181.15 1481.83L1475.69 1214.89C1479.41 1211.51 1481.93 1207.01 1482.85 1202.06L1547.33 855.943C1548.88 847.646 1545.75 839.168 1539.2 833.857L1339.45 672.109C1332.89 666.798 1323.95 665.505 1316.16 668.743L991.01 803.776C986.365 805.705 982.48 809.104 979.951 813.453L780.083 1157.05C776.956 1162.43 776.139 1168.84 777.819 1174.83L855.714 1452.55Z" stroke="url(#paint16_linear_50_60)" stroke-width="4"/>
<path opacity="0.26087" d="M818.761 1432.6C820.914 1442.09 828.809 1449.2 838.474 1450.35L1122.6 1484.15C1128.79 1484.88 1135.01 1483.08 1139.84 1479.14L1444.77 1230.9C1448.69 1227.71 1451.45 1223.32 1452.62 1218.41L1533.7 879.398C1535.66 871.204 1532.98 862.594 1526.72 856.956L1336.96 686.098C1330.7 680.46 1321.86 678.697 1313.92 681.502L985.237 797.575C980.476 799.257 976.4 802.458 973.639 806.686L758.626 1135.9C755.219 1141.11 754.074 1147.49 755.453 1153.56L818.761 1432.6Z" stroke="url(#paint17_linear_50_60)" stroke-width="4"/>
<path opacity="0.275362" d="M783.077 1412.07C784.745 1421.63 792.226 1429.11 801.78 1430.78L1081.38 1479.57C1087.52 1480.64 1093.84 1479.17 1098.89 1475.5L1413.08 1246.29C1417.17 1243.3 1420.17 1239.04 1421.59 1234.18L1518.71 903.057C1521.08 894.986 1518.85 886.267 1512.9 880.32L1333.53 700.948C1327.59 695.001 1318.87 692.774 1310.8 695.141L979.674 792.26C974.81 793.686 970.553 796.68 967.566 800.775L738.358 1114.97C734.68 1120.01 733.208 1126.33 734.281 1132.48L783.077 1412.07Z" stroke="url(#paint18_linear_50_60)" stroke-width="4"/>
<path opacity="0.289855" d="M748.681 1391.04C749.862 1400.63 756.912 1408.46 766.328 1410.64L1040.61 1474.05C1046.7 1475.46 1053.1 1474.33 1058.34 1470.92L1380.64 1261.03C1384.91 1258.25 1388.13 1254.14 1389.81 1249.33L1502.37 926.841C1505.13 918.914 1503.36 910.11 1497.74 903.872L1329.12 716.601C1323.51 710.362 1314.94 707.68 1306.76 709.603L974.27 787.833C969.317 788.999 964.89 791.774 961.682 795.725L719.255 1094.32C715.314 1099.18 713.519 1105.42 714.283 1111.63L748.681 1391.04Z" stroke="url(#paint19_linear_50_60)" stroke-width="4"/>
<path opacity="0.304348" d="M715.589 1369.57C716.284 1379.18 722.887 1387.33 732.136 1390.01L1000.35 1467.62C1006.36 1469.36 1012.83 1468.57 1018.25 1465.44L1347.51 1275.09C1351.93 1272.53 1355.38 1268.57 1357.3 1263.84L1484.67 950.673C1487.83 942.911 1486.51 934.046 1481.24 927.534L1323.7 732.994C1318.43 726.482 1310.03 723.353 1301.78 724.827L968.981 784.298C963.951 785.197 959.364 787.745 955.943 791.54L701.294 1074.03C697.1 1078.68 694.985 1084.84 695.437 1091.09L715.589 1369.57Z" stroke="url(#paint20_linear_50_60)" stroke-width="4"/>
<path opacity="0.318841" d="M683.808 1347.76C684.019 1357.35 690.16 1365.8 699.216 1368.96L960.63 1460.31C966.554 1462.38 973.066 1461.94 978.657 1459.09L1313.72 1288.42C1318.29 1286.09 1321.95 1282.3 1324.12 1277.65L1465.63 974.476C1469.17 966.898 1468.31 957.996 1463.4 951.229L1317.24 750.064C1312.33 743.297 1304.12 739.733 1295.82 740.755L963.755 781.653C958.664 782.28 953.928 784.591 950.301 788.219L684.443 1054.14C680.006 1058.58 677.576 1064.64 677.714 1070.91L683.808 1347.76Z" stroke="url(#paint21_linear_50_60)" stroke-width="4"/>
<path opacity="0.333333" d="M653.347 1325.67C653.078 1335.22 658.743 1343.94 667.579 1347.58L921.501 1452.16C927.314 1454.56 933.853 1454.47 939.598 1451.92L1279.32 1301.01C1284.02 1298.91 1287.89 1295.3 1290.3 1290.75L1445.27 998.176C1449.18 990.799 1448.78 981.885 1444.23 974.884L1309.72 767.744C1305.17 760.744 1297.19 756.756 1288.86 757.325L958.548 779.893C953.409 780.244 948.536 782.31 944.711 785.76L668.672 1034.73C664.003 1038.94 661.262 1044.87 661.085 1051.16L653.347 1325.67Z" stroke="url(#paint22_linear_50_60)" stroke-width="4"/>
<path opacity="0.347826" d="M624.205 1303.38C623.46 1312.87 628.637 1321.83 637.228 1325.93L882.997 1443.22C888.681 1445.93 895.228 1446.19 901.112 1443.95L1244.34 1312.81C1249.18 1310.97 1253.25 1307.54 1255.89 1303.1L1423.6 1021.7C1427.87 1014.54 1427.93 1005.64 1423.76 998.423L1301.1 785.972C1296.94 778.757 1289.2 774.359 1280.87 774.474L953.31 779.012C948.138 779.083 943.141 780.896 939.126 784.158L653.943 1015.84C649.055 1019.81 646.009 1025.61 645.516 1031.89L624.205 1303.38Z" stroke="url(#paint23_linear_50_60)" stroke-width="4"/>
<path opacity="0.362319" d="M596.379 1280.96C595.164 1290.37 599.844 1299.55 608.165 1304.1L845.154 1433.52C850.692 1436.54 857.229 1437.16 863.235 1435.22L1208.85 1323.81C1213.8 1322.22 1218.06 1319 1220.94 1314.68L1400.65 1044.97C1405.26 1038.05 1405.78 1029.18 1402 1021.77L1291.39 804.68C1287.61 797.272 1280.13 792.477 1271.83 792.14L947.997 779.001C942.807 778.79 937.698 780.343 933.503 783.406L640.22 997.532C635.124 1001.25 631.78 1006.9 630.971 1013.16L596.379 1280.96Z" stroke="url(#paint24_linear_50_60)" stroke-width="4"/>
<path opacity="0.376812" d="M569.861 1258.5C568.184 1267.8 572.357 1277.17 580.386 1282.14L808.006 1423.11C813.38 1426.43 819.888 1427.4 826 1425.79L1172.89 1333.99C1177.93 1332.65 1182.37 1329.64 1185.48 1325.45L1376.44 1067.92C1381.38 1061.26 1382.35 1052.45 1378.98 1044.87L1280.55 823.802C1277.18 816.222 1269.98 811.048 1261.72 810.261L942.564 779.849C937.37 779.354 932.162 780.64 927.796 783.495L627.459 979.858C622.168 983.317 618.534 988.802 617.411 995.024L569.861 1258.5Z" stroke="url(#paint25_linear_50_60)" stroke-width="4"/>
<path opacity="0.391304" d="M544.641 1236.07C542.509 1245.23 546.169 1254.76 553.882 1260.14L771.582 1412.03C776.777 1415.65 783.236 1416.97 789.437 1415.68L1136.5 1343.31C1141.63 1342.24 1146.24 1339.45 1149.57 1335.4L1351 1090.48C1356.26 1084.09 1357.68 1075.36 1354.71 1067.63L1268.59 843.273C1265.62 835.543 1258.73 830.005 1250.54 828.772L936.965 781.543C931.784 780.763 926.491 781.775 921.963 784.413L615.619 962.867C610.146 966.055 606.23 971.359 604.795 977.528L544.641 1236.07Z" stroke="url(#paint26_linear_50_60)" stroke-width="4"/>
<path opacity="0.405797" d="M520.701 1213.73C518.125 1222.74 521.266 1232.4 528.642 1238.17L735.911 1400.32C740.909 1404.23 747.301 1405.9 753.574 1404.94L1099.74 1351.77C1104.95 1350.97 1109.72 1348.41 1113.26 1344.52L1324.37 1112.59C1329.94 1106.48 1331.79 1097.86 1329.24 1090L1255.49 863.026C1252.94 855.168 1246.37 849.284 1238.28 847.61L931.158 784.067C926.004 783 920.639 783.734 915.961 786.145L604.651 946.604C599.01 949.511 594.821 954.621 593.076 960.722L520.701 1213.73Z" stroke="url(#paint27_linear_50_60)" stroke-width="4"/>
<path opacity="0.42029" d="M498.022 1191.57C495.013 1200.39 497.631 1210.16 504.65 1216.3L701.016 1388.05C705.803 1392.23 712.109 1394.25 718.436 1393.62L1062.66 1359.35C1067.92 1358.83 1072.84 1356.51 1076.59 1352.78L1296.59 1134.18C1302.44 1128.37 1304.73 1119.88 1302.6 1111.92L1241.26 882.995C1239.13 875.033 1232.89 868.821 1224.92 866.713L925.101 787.402C919.989 786.049 914.568 786.5 909.749 788.677L594.508 931.113C588.713 933.731 584.261 938.632 582.209 944.651L498.022 1191.57Z" stroke="url(#paint28_linear_50_60)" stroke-width="4"/>
<path opacity="0.434783" d="M476.581 1169.64C473.15 1178.27 475.242 1188.11 481.886 1194.6L666.921 1375.24C671.48 1379.69 677.681 1382.05 684.046 1381.76L1025.31 1366.04C1030.61 1365.8 1035.67 1363.73 1039.62 1360.17L1267.7 1155.2C1273.82 1149.7 1276.53 1141.35 1274.82 1133.31L1225.89 903.116C1224.18 895.071 1218.31 888.551 1210.48 886.017L918.753 791.528C913.699 789.891 908.235 790.054 903.287 791.989L585.138 916.435C579.204 918.756 574.499 923.434 572.144 929.355L476.581 1169.64Z" stroke="url(#paint29_linear_50_60)" stroke-width="4"/>
<path opacity="0.449275" d="M456.349 1148.02C452.509 1156.43 454.075 1166.32 460.326 1173.13L633.642 1361.96C637.959 1366.66 644.037 1369.36 650.421 1369.41L987.73 1371.84C993.067 1371.87 998.251 1370.05 1002.39 1366.69L1237.73 1175.58C1244.1 1170.4 1247.23 1162.23 1245.95 1154.12L1209.4 923.323C1208.11 915.218 1202.61 908.411 1194.95 905.46L912.073 796.424C907.093 794.504 901.601 794.377 896.537 796.062L576.487 902.605C570.43 904.622 565.483 909.066 562.831 914.873L456.349 1148.02Z" stroke="url(#paint30_linear_50_60)" stroke-width="4"/>
<path opacity="0.463768" d="M437.296 1126.77C433.061 1134.94 434.102 1144.85 439.943 1151.96L601.199 1348.25C605.259 1353.19 611.196 1356.22 617.581 1356.61L949.985 1376.72C955.338 1377.05 960.636 1375.49 964.963 1372.32L1206.75 1195.26C1213.35 1190.43 1216.89 1182.45 1216.03 1174.3L1191.78 943.554C1190.92 935.412 1185.81 928.339 1178.34 924.982L905.026 802.065C900.135 799.865 894.629 799.444 889.461 800.874L568.503 889.659C562.337 891.365 557.16 895.561 554.216 901.241L437.296 1126.77Z" stroke="url(#paint31_linear_50_60)" stroke-width="4"/>
<path opacity="0.478261" d="M419.387 1105.95C414.772 1113.87 415.291 1123.76 420.707 1131.15L569.603 1334.16C573.394 1339.33 579.171 1342.68 585.54 1343.41L912.121 1380.7C917.476 1381.31 922.875 1380.02 927.376 1377.06L1174.79 1214.21C1181.61 1209.72 1185.54 1201.95 1185.11 1193.8L1173.06 963.746C1172.63 955.59 1167.91 948.273 1160.66 944.521L897.575 808.425C892.789 805.949 887.285 805.232 882.023 806.4L561.129 877.626C554.871 879.015 549.476 882.953 546.246 888.49L419.387 1105.95Z" stroke="url(#paint32_linear_50_60)" stroke-width="4"/>
<path opacity="0.492754" d="M402.584 1085.63C397.605 1093.27 397.605 1103.12 402.584 1110.76L538.864 1319.74C542.373 1325.12 547.972 1328.79 554.307 1329.86L874.19 1383.77C879.531 1384.67 885.018 1383.66 889.685 1380.91L1141.91 1232.37C1148.93 1228.24 1153.24 1220.7 1153.24 1212.55L1153.24 983.838C1153.24 975.692 1148.93 968.154 1141.91 964.02L889.684 815.477C885.018 812.729 879.531 811.715 874.19 812.616L554.307 866.533C547.972 867.601 542.373 871.269 538.864 876.65L402.584 1085.63Z" stroke="url(#paint33_linear_50_60)" stroke-width="4"/>
<path opacity="0.507246" d="M386.846 1065.86C381.52 1073.2 381.007 1082.99 385.537 1090.85L508.991 1305.04C512.206 1310.62 517.61 1314.59 523.892 1316L836.243 1385.94C841.555 1387.13 847.116 1386.4 851.939 1383.87L1108.17 1249.69C1115.37 1245.92 1120.05 1238.64 1120.47 1230.52L1132.36 1003.77C1132.78 995.657 1128.89 987.92 1122.13 983.419L881.323 823.191C876.791 820.175 871.336 818.865 865.929 819.493L547.979 856.403C541.584 857.146 535.793 860.534 532.013 865.744L386.846 1065.86Z" stroke="url(#paint34_linear_50_60)" stroke-width="4"/>
<path opacity="0.521739" d="M372.131 1046.69C366.474 1053.72 365.455 1063.42 369.526 1071.47L479.988 1290.11C482.897 1295.87 488.091 1300.14 494.302 1301.88L798.33 1387.21C803.598 1388.69 809.22 1388.24 814.188 1385.95L1073.62 1266.14C1080.98 1262.74 1086.01 1255.72 1086.86 1247.66L1110.42 1023.49C1111.27 1015.43 1107.81 1007.52 1101.32 1002.66L872.458 831.537C868.077 828.26 862.67 826.653 857.21 827.004L542.085 847.257C535.647 847.671 529.679 850.769 525.636 855.796L372.131 1046.69Z" stroke="url(#paint35_linear_50_60)" stroke-width="4"/>
<path opacity="0.536232" d="M358.389 1028.17C352.42 1034.88 350.904 1044.46 354.507 1052.68L451.857 1275C454.45 1280.92 459.416 1285.48 465.538 1287.55L760.499 1387.59C765.708 1389.36 771.378 1389.2 776.479 1387.14L1038.33 1281.68C1045.82 1278.66 1051.19 1271.92 1052.45 1263.94L1087.46 1042.93C1088.72 1034.95 1085.7 1026.89 1079.5 1021.7L863.062 840.482C858.845 836.951 853.502 835.048 848.002 835.118L536.564 839.111C530.1 839.194 523.969 841.993 519.673 846.824L358.389 1028.17Z" stroke="url(#paint36_linear_50_60)" stroke-width="4"/>
<path opacity="0.550725" d="M345.574 1010.36C339.312 1016.74 337.309 1026.16 340.437 1034.53L424.597 1259.75C426.865 1265.82 431.588 1270.65 437.603 1273.06L722.802 1387.09C727.936 1389.14 733.638 1389.28 738.864 1387.47L1002.34 1296.27C1009.96 1293.63 1015.64 1287.2 1017.32 1279.31L1063.5 1062.05C1065.17 1054.17 1062.6 1045.98 1056.71 1040.47L853.108 849.993C849.07 846.215 843.806 844.018 838.28 843.805L531.358 831.977C524.884 831.727 518.605 834.22 514.065 838.842L345.574 1010.36Z" stroke="url(#paint37_linear_50_60)" stroke-width="4"/>
<path opacity="0.565217" d="M333.634 993.297C327.099 999.322 324.62 1008.57 327.267 1017.06L398.206 1244.43C400.14 1250.62 404.603 1255.72 410.495 1258.45L685.284 1385.72C690.329 1388.06 696.05 1388.49 701.388 1386.94L965.73 1309.88C973.447 1307.63 979.43 1301.52 981.51 1293.75L1038.57 1080.79C1040.65 1073.03 1038.53 1064.74 1032.97 1058.94L842.57 860.034C838.726 856.018 833.556 853.53 828.019 853.031L526.405 825.864C519.938 825.281 513.526 827.459 508.752 831.861L333.634 993.297Z" stroke="url(#paint38_linear_50_60)" stroke-width="4"/>
<path opacity="0.57971" d="M322.515 977.022C315.726 982.685 312.785 991.738 314.948 1000.31L372.675 1229.06C374.267 1235.37 378.458 1240.71 384.208 1243.76L647.993 1383.51C652.934 1386.13 658.658 1386.86 664.096 1385.56L928.555 1322.49C936.352 1320.63 942.618 1314.85 945.094 1307.23L1012.72 1099.11C1015.19 1091.49 1013.52 1083.13 1008.31 1077.04L831.426 870.572C827.789 866.326 822.73 863.551 817.195 862.764L521.643 820.778C515.2 819.863 508.671 821.72 503.674 825.889L322.515 977.022Z" stroke="url(#paint39_linear_50_60)" stroke-width="4"/>
<path opacity="0.594203" d="M312.162 961.571C305.14 966.863 301.75 975.695 303.427 984.326L347.998 1213.71C349.242 1220.11 353.145 1225.68 358.737 1229.04L610.975 1380.47C615.795 1383.36 621.509 1384.39 627.036 1383.36L890.881 1334.08C898.737 1332.62 905.267 1327.18 908.131 1319.72L985.964 1116.95C988.828 1109.49 987.614 1101.08 982.758 1094.73L819.656 881.568C816.239 877.103 811.305 874.043 805.786 872.969L517.012 816.721C510.61 815.474 503.98 817.004 498.772 820.93L312.162 961.571Z" stroke="url(#paint40_linear_50_60)" stroke-width="4"/>
<path opacity="0.608696" d="M302.518 946.981C295.285 951.892 291.461 960.48 292.652 969.141L324.161 1198.41C325.051 1204.89 328.655 1210.68 334.071 1214.34L574.273 1376.62C578.959 1379.79 584.647 1381.11 590.25 1380.35L852.773 1344.63C860.667 1343.56 867.443 1338.47 870.683 1331.2L958.355 1134.28C961.596 1127 960.839 1118.57 956.355 1111.98L807.239 892.986C804.057 888.312 799.263 884.974 793.775 883.61L512.451 813.692C506.107 812.116 499.392 813.313 493.984 816.985L302.518 946.981Z" stroke="url(#paint41_linear_50_60)" stroke-width="4"/>
<path opacity="0.623188" d="M293.525 933.281C286.102 937.803 281.862 946.124 282.567 954.788L301.153 1183.22C301.685 1189.75 304.976 1195.74 310.201 1199.69L537.93 1371.99C542.467 1375.42 548.114 1377.05 553.781 1376.56L814.296 1354.12C822.208 1353.44 829.21 1348.73 832.815 1341.65L929.93 1151.05C933.535 1143.97 933.235 1135.54 929.135 1128.74L794.161 904.787C791.225 899.915 786.587 896.304 781.144 894.652L507.901 811.685C501.632 809.782 494.848 810.642 489.253 814.051L293.525 933.281Z" stroke="url(#paint42_linear_50_60)" stroke-width="4"/>
<path opacity="0.637681" d="M285.124 920.496C277.532 924.623 272.893 932.658 273.115 941.297L278.957 1168.16C279.126 1174.73 282.093 1180.91 287.111 1185.15L501.988 1366.59C506.36 1370.29 511.952 1372.22 517.67 1372.01L775.515 1362.55C783.426 1362.26 790.632 1357.92 794.59 1351.06L900.73 1167.22C904.688 1160.37 904.843 1151.96 901.138 1144.96L780.407 916.933C777.729 911.875 773.262 907.998 767.879 906.057L503.301 810.692C497.124 808.465 490.289 808.985 484.519 812.121L285.124 920.496Z" stroke="url(#paint43_linear_50_60)" stroke-width="4"/>
<path opacity="0.652174" d="M277.254 908.651C269.514 912.377 264.496 920.105 264.24 928.691L257.554 1153.3C257.359 1159.88 259.991 1166.23 264.785 1170.74L466.485 1360.47C470.679 1364.42 476.199 1366.64 481.957 1366.72L736.496 1369.9C744.386 1370 751.775 1366.05 756.073 1359.43L870.8 1182.77C875.097 1176.15 875.703 1167.79 872.403 1160.62L765.964 929.384C763.557 924.154 759.275 920.017 753.966 917.79L498.595 810.701C492.525 808.155 485.655 808.332 479.724 811.187L277.254 908.651Z" stroke="url(#paint44_linear_50_60)" stroke-width="4"/>
<path opacity="0.666667" d="M269.853 897.764C261.989 901.085 256.61 908.488 255.883 916.994L236.924 1138.66C236.362 1145.23 238.65 1151.73 243.206 1156.5L431.459 1353.65C435.46 1357.84 440.895 1360.37 446.677 1360.72L697.304 1376.18C705.152 1376.66 712.705 1373.11 717.327 1366.74L840.185 1197.64C844.807 1191.28 845.859 1183 842.973 1175.68L750.823 942.101C748.697 936.712 744.615 932.324 739.394 929.813L493.723 811.696C487.777 808.837 480.89 808.67 474.812 811.236L269.853 897.764Z" stroke="url(#paint45_linear_50_60)" stroke-width="4"/>
<path opacity="0.681159" d="M262.862 887.85C254.894 890.762 249.176 897.823 247.985 906.222L217.046 1124.28C216.117 1130.83 218.051 1137.46 222.355 1142.48L396.946 1346.16C400.74 1350.59 406.074 1353.41 411.869 1354.05L658.004 1381.39C665.793 1382.25 673.486 1379.09 678.417 1373L808.934 1211.83C813.865 1205.74 815.357 1197.56 812.891 1190.12L734.977 955.045C733.142 949.511 729.275 944.88 724.156 942.088L488.632 813.66C482.826 810.494 475.938 809.98 469.726 812.25L262.862 887.85Z" stroke="url(#paint46_linear_50_60)" stroke-width="4"/>
<path opacity="0.695652" d="M256.216 878.921C248.167 881.422 242.132 888.125 240.485 896.391L197.893 1110.21C196.598 1116.71 198.172 1123.46 202.21 1128.71L362.978 1338.04C366.553 1342.69 371.771 1345.8 377.565 1346.73L618.661 1385.53C626.37 1386.77 634.182 1384.01 639.407 1378.21L777.093 1225.29C782.318 1219.49 784.242 1211.43 782.202 1203.9L718.42 968.176C716.887 962.511 713.247 957.647 708.244 954.578L483.266 816.57C477.615 813.104 470.744 812.244 464.413 814.212L256.216 878.921Z" stroke="url(#paint47_linear_50_60)" stroke-width="4"/>
<path opacity="0.710145" d="M249.855 870.983C241.748 873.074 235.417 879.404 233.327 887.511L179.442 1096.48C177.783 1102.91 178.988 1109.75 182.747 1115.23L329.589 1329.31C332.93 1334.18 338.018 1337.58 343.798 1338.81L579.338 1388.61C586.949 1390.22 594.858 1387.87 600.36 1382.37L744.713 1238.02C750.214 1232.51 752.561 1224.61 750.952 1216.99L701.149 981.454C699.927 975.675 696.528 970.587 691.656 967.245L477.573 820.403C472.093 816.644 465.255 815.439 458.821 817.098L249.855 870.983Z" stroke="url(#paint48_linear_50_60)" stroke-width="4"/>
<path opacity="0.724638" d="M243.716 864.041C235.572 865.721 228.969 871.666 226.447 879.59L161.662 1083.11C159.642 1089.46 160.472 1096.37 163.94 1102.06L296.805 1320.03C299.901 1325.11 304.843 1328.79 310.596 1330.3L540.096 1390.64C547.592 1392.62 555.575 1390.68 561.335 1385.49L711.843 1249.98C717.602 1244.79 720.363 1237.05 719.186 1229.39L683.162 994.84C682.259 988.962 679.114 983.661 674.387 980.052L471.501 825.13C466.207 821.087 459.42 819.539 452.896 820.885L243.716 864.041Z" stroke="url(#paint49_linear_50_60)" stroke-width="4"/>
<path opacity="0.73913" d="M237.739 858.095C229.58 859.366 222.729 864.914 219.789 872.631L144.526 1070.15C142.148 1076.39 142.6 1083.36 145.764 1089.24L264.656 1310.22C267.493 1315.49 272.276 1319.45 277.987 1321.26L500.998 1391.65C508.36 1393.98 516.396 1392.45 522.396 1387.59L678.534 1261.16C684.533 1256.3 687.695 1248.75 686.953 1241.07L664.462 1008.3C663.886 1002.33 661.007 996.833 656.439 992.961L465.003 830.722C459.908 826.405 453.189 824.515 446.59 825.543L237.739 858.095Z" stroke="url(#paint50_linear_50_60)" stroke-width="4"/>
<path opacity="0.753623" d="M231.863 853.14C223.71 854.006 216.635 859.147 213.292 866.633L128.003 1057.62C125.273 1063.73 125.342 1070.73 128.192 1076.79L233.164 1299.93C235.731 1305.39 240.34 1309.62 245.996 1311.71L462.101 1391.65C469.313 1394.32 477.38 1393.21 483.6 1388.69L644.837 1271.54C651.057 1267.02 654.608 1259.69 654.299 1252.01L645.051 1021.78C644.809 1015.75 642.209 1010.06 637.812 1005.94L458.03 837.146C453.15 832.564 446.515 830.336 439.858 831.043L231.863 853.14Z" stroke="url(#paint51_linear_50_60)" stroke-width="4"/>
<path opacity="0.768116" d="M226.028 849.17C217.903 849.635 210.628 854.359 206.898 861.593L112.06 1045.55C108.984 1051.51 108.668 1058.52 111.193 1064.74L202.353 1289.2C204.639 1294.82 209.059 1299.32 214.647 1301.7L423.465 1390.67C430.509 1393.67 438.585 1392.97 445.007 1388.79L610.803 1281.13C617.225 1276.96 621.15 1269.86 621.274 1262.21L624.935 1035.26C625.033 1029.18 622.723 1023.32 618.511 1018.94L450.539 844.367C445.886 839.53 439.352 836.968 432.652 837.351L226.028 849.17Z" stroke="url(#paint52_linear_50_60)" stroke-width="4"/>
<path opacity="0.782609" d="M220.175 846.174C212.097 846.243 204.648 850.544 200.55 857.505L96.6635 1033.96C93.2499 1039.76 92.5463 1046.76 94.738 1053.12L172.241 1278.06C174.235 1283.85 178.452 1288.6 183.96 1291.27L385.144 1388.72C392.006 1392.04 400.068 1391.75 406.671 1387.94L576.484 1289.9C583.087 1286.09 587.371 1279.25 587.924 1271.65L604.12 1048.69C604.563 1042.58 602.556 1036.56 598.542 1031.94L442.488 852.346C438.074 847.267 431.659 844.375 424.931 844.432L220.175 846.174Z" stroke="url(#paint53_linear_50_60)" stroke-width="4"/>
<path opacity="0.797101" d="M214.246 844.138C206.237 843.817 198.639 847.689 194.191 854.357L81.7806 1022.87C78.0374 1028.49 76.9462 1035.46 78.796 1041.95L142.847 1266.57C144.538 1272.5 148.539 1277.5 153.953 1280.45L347.193 1385.85C353.857 1389.48 361.884 1389.59 368.647 1386.15L541.931 1297.85C548.694 1294.41 553.321 1287.85 554.298 1280.32L582.617 1062.04C583.41 1055.92 581.715 1049.74 577.911 1044.89L433.836 861.043C429.675 855.734 423.394 852.519 416.654 852.249L214.246 844.138Z" stroke="url(#paint54_linear_50_60)" stroke-width="4"/>
<path opacity="0.811594" d="M208.185 843.045C200.265 842.342 192.543 845.78 187.766 852.136L67.375 1012.32C63.3119 1017.73 61.8339 1024.65 63.3341 1031.24L114.184 1254.76C115.562 1260.82 119.334 1266.06 124.64 1269.3L309.662 1382.08C316.113 1386.01 324.085 1386.52 330.988 1383.45L507.193 1305C514.095 1301.92 519.048 1295.66 520.443 1288.23L560.436 1075.27C561.582 1069.16 560.209 1062.85 556.629 1057.77L424.547 870.418C420.65 864.891 414.518 861.358 407.782 860.761L208.185 843.045Z" stroke="url(#paint55_linear_50_60)" stroke-width="4"/>
<path opacity="0.826087" d="M201.94 842.873C194.127 841.796 186.307 844.798 181.221 850.826L53.4125 1002.31C49.0402 1007.49 47.1773 1014.34 48.3213 1021.02L86.2662 1242.68C87.323 1248.85 90.8517 1254.33 96.0373 1257.84L272.601 1377.44C278.827 1381.66 286.722 1382.57 293.743 1379.87L472.322 1311.32C479.343 1308.63 484.603 1302.67 486.408 1295.37L537.591 1088.34C539.094 1082.26 538.053 1075.83 534.707 1070.54L414.587 880.426C410.966 874.694 405 870.852 398.283 869.926L201.94 842.873Z" stroke="url(#paint56_linear_50_60)" stroke-width="4"/>
<path opacity="0.84058" d="M195.455 843.598C187.768 842.158 179.876 844.722 174.504 850.406L39.855 992.861C35.1854 997.801 32.9405 1004.55 33.7228 1011.31L59.1013 1230.37C59.8279 1236.65 63.1011 1242.34 68.1533 1246.13L236.056 1371.99C242.044 1376.48 249.842 1377.77 256.959 1375.46L437.367 1316.84C444.484 1314.53 450.031 1308.9 452.237 1301.75L514.096 1101.23C515.957 1095.2 515.256 1088.67 512.157 1083.17L403.925 891.021C400.589 885.098 394.803 880.954 388.122 879.702L195.455 843.598Z" stroke="url(#paint57_linear_50_60)" stroke-width="4"/>
<path opacity="0.855072" d="M188.682 845.195C181.139 843.401 173.2 845.528 167.564 850.853L26.6664 983.988C21.7124 988.669 19.0897 995.306 19.5056 1002.11L32.6973 1217.88C33.0858 1224.24 36.0909 1230.15 40.9971 1234.2L200.071 1365.75C205.809 1370.5 213.489 1372.17 220.681 1370.24L402.376 1321.56C409.568 1319.63 415.382 1314.34 417.979 1307.36L489.968 1113.9C492.188 1107.94 491.836 1101.32 488.995 1095.62L392.532 902.157C389.49 896.057 383.9 891.621 377.27 890.044L188.682 845.195Z" stroke="url(#paint58_linear_50_60)" stroke-width="4"/>
<path opacity="0.869565" d="M181.571 847.633C174.189 845.497 166.228 847.19 160.353 852.143L13.8094 975.701C8.585 980.106 5.58988 986.606 5.63578 993.439L7.0587 1205.26C7.10182 1211.68 9.82669 1217.79 14.5743 1222.11L164.687 1358.77C170.164 1363.76 177.708 1365.8 184.953 1364.26L367.396 1325.49C374.641 1323.95 380.701 1319.01 383.677 1312.23L465.225 1126.32C467.804 1120.44 467.808 1113.75 465.236 1107.87L380.382 913.785C377.645 907.523 372.265 902.803 365.7 900.904L181.571 847.633Z" stroke="url(#paint59_linear_50_60)" stroke-width="4"/>
<path opacity="0.884058" d="M174.076 850.881C166.872 848.416 158.914 849.676 152.824 854.247L1.24675 968.01C-4.23323 972.123 -7.59417 978.465 -7.92085 985.309L-17.8126 1192.54C-18.1215 1199 -15.6886 1205.3 -11.1117 1209.89L129.941 1351.1C135.148 1356.32 142.536 1358.72 149.812 1357.57L332.474 1328.64C339.751 1327.48 346.035 1322.91 349.376 1316.35L439.887 1138.46C442.824 1132.68 443.191 1125.94 440.898 1119.88L367.454 925.855C365.028 919.447 359.872 914.455 353.389 912.236L174.076 850.881Z" stroke="url(#paint60_linear_50_60)" stroke-width="4"/>
<path opacity="0.898551" d="M166.154 854.903C159.142 852.122 151.213 852.955 144.932 857.134L-11.0595 960.922C-16.7792 964.728 -20.4982 970.891 -21.199 977.725L-41.9178 1179.77C-42.5844 1186.27 -40.4547 1192.74 -36.0608 1197.58L95.8692 1342.78C100.796 1348.21 108.01 1350.96 115.296 1350.19L297.655 1331.02C304.941 1330.26 311.426 1326.07 315.118 1319.74L413.975 1150.28C417.267 1144.63 418.004 1137.86 416 1131.64L353.727 938.318C351.621 931.779 346.702 926.524 340.316 923.991L166.154 854.903Z" stroke="url(#paint61_linear_50_60)" stroke-width="4"/>
<path opacity="0.913043" d="M157.764 859.663C150.96 856.579 143.082 856.992 136.638 860.77L-23.1459 954.441C-29.0883 957.925 -33.1565 963.889 -34.2319 970.692L-65.259 1166.99C-66.2884 1173.5 -64.473 1180.15 -60.2737 1185.23L62.5026 1333.87C67.1411 1339.48 74.1654 1342.57 81.439 1342.19L262.982 1332.67C270.255 1332.29 276.918 1328.49 280.945 1322.42L387.512 1161.76C391.156 1156.27 392.268 1149.47 390.563 1143.1L339.187 951.122C337.407 944.468 332.737 938.963 326.463 936.119L157.764 859.663Z" stroke="url(#paint62_linear_50_60)" stroke-width="4"/>
<path opacity="0.927536" d="M148.867 865.121C142.284 861.75 134.482 861.75 127.899 865.121L-35.0502 948.57C-41.1976 951.719 -45.6049 957.463 -47.0542 964.215L-87.8424 1154.25C-89.2391 1160.76 -87.7483 1167.56 -83.7553 1172.88L29.8694 1324.4C34.213 1330.19 41.0303 1333.6 48.2702 1333.6L228.495 1333.6C235.735 1333.6 242.553 1330.19 246.896 1324.4L360.521 1172.88C364.514 1167.56 366.005 1160.76 364.608 1154.25L323.82 964.215C322.37 957.463 317.963 951.719 311.816 948.57L148.867 865.121Z" stroke="url(#paint63_linear_50_60)" stroke-width="4"/>
<path opacity="0.942029" d="M139.427 871.237C133.079 867.594 125.375 867.19 118.68 870.15L-46.8088 943.309C-53.1426 946.109 -57.8776 951.614 -59.6991 958.295L-109.676 1141.6C-111.443 1148.08 -110.287 1155.01 -106.512 1160.57L-2.00468 1314.43C2.03791 1320.38 8.63272 1324.1 15.8177 1324.48L194.236 1333.83C201.421 1334.2 208.368 1331.2 213.011 1325.7L333.028 1183.61C337.364 1178.47 339.238 1171.7 338.158 1165.07L307.616 977.546C306.503 970.71 302.369 964.741 296.363 961.294L139.427 871.237Z" stroke="url(#paint64_linear_50_60)" stroke-width="4"/>
<path opacity="0.956522" d="M129.413 877.967C123.31 874.068 115.727 873.271 108.947 875.816L-58.458 938.656C-64.9587 941.096 -70.0091 946.343 -72.2001 952.931L-130.769 1129.07C-132.911 1135.51 -132.099 1142.56 -128.552 1148.35L-33.0982 1304.02C-29.3615 1310.12 -23.004 1314.13 -15.8948 1314.87L160.242 1333.39C167.351 1334.13 174.404 1331.53 179.325 1326.35L305.059 1193.92C309.732 1189 311.993 1182.27 311.237 1175.53L290.569 991.06C289.795 984.16 285.946 977.978 280.095 974.239L129.413 877.967Z" stroke="url(#paint65_linear_50_60)" stroke-width="4"/>
<path opacity="0.971014" d="M118.794 885.267C112.948 881.129 105.507 879.95 98.6679 882.08L-70.0336 934.606C-76.6811 936.676 -82.0333 941.646 -84.5897 948.121L-151.136 1116.7C-153.653 1123.08 -153.195 1130.24 -149.887 1136.25L-63.3927 1293.22C-59.966 1299.44 -53.8593 1303.72 -46.8464 1304.83L126.548 1332.3C133.561 1333.41 140.694 1331.22 145.874 1326.36L276.642 1203.8C281.643 1199.12 284.293 1192.44 283.87 1185.6L272.675 1004.71C272.244 997.758 268.69 991.377 263.007 987.355L118.794 885.267Z" stroke="url(#paint66_linear_50_60)" stroke-width="4"/>
<path opacity="0.985507" d="M107.544 893.092C101.964 888.731 94.686 887.184 87.8145 888.898L-81.5704 931.155C-88.3437 932.844 -93.983 937.519 -96.8996 943.861L-170.791 1104.54C-173.685 1110.84 -173.589 1118.1 -170.53 1124.31L-92.8731 1282.08C-89.7593 1288.4 -83.9161 1292.95 -77.0195 1294.42L93.1882 1330.6C100.085 1332.06 107.273 1330.28 112.69 1325.77L247.804 1213.23C253.125 1208.8 256.166 1202.2 256.082 1195.28L253.934 1018.43C253.849 1011.45 250.598 1004.89 245.098 1000.59L107.544 893.092Z" stroke="url(#paint67_linear_50_60)" stroke-width="4"/>
<path d="M95.6393 901.394C90.3339 896.828 83.2382 894.927 76.3607 896.228L-93.1031 928.292C-99.9805 929.594 -105.891 933.956 -109.162 940.144L-189.752 1092.63C-193.022 1098.82 -193.297 1106.16 -190.498 1112.57L-121.529 1270.65C-118.73 1277.07 -113.161 1281.86 -106.4 1283.67L60.1933 1328.31C66.9543 1330.12 74.1723 1328.76 79.804 1324.6L218.574 1222.18C224.205 1218.03 227.638 1211.53 227.9 1204.54L234.348 1032.19C234.61 1025.19 231.673 1018.46 226.367 1013.89L95.6393 901.394Z" stroke="url(#paint68_linear_50_60)" stroke-width="4"/>
<defs>
<linearGradient id="paint0_linear_50_60" x1="1602.76" y1="1645.83" x2="1418.87" y2="484.813" gradientUnits="userSpaceOnUse">
<stop stop-color="#FF1CF7"/>
<stop offset="1" stop-color="#00F0FF"/>
</linearGradient>
<linearGradient id="paint1_linear_50_60" x1="1550.99" y1="1645.09" x2="1429.2" y2="486.357" gradientUnits="userSpaceOnUse">
<stop stop-color="#FF1CF7"/>
<stop offset="1" stop-color="#00F0FF"/>
</linearGradient>
<linearGradient id="paint2_linear_50_60" x1="1499.59" y1="1642.76" x2="1439.15" y2="489.606" gradientUnits="userSpaceOnUse">
<stop stop-color="#FF1CF7"/>
<stop offset="1" stop-color="#00F0FF"/>
</linearGradient>
<linearGradient id="paint3_linear_50_60" x1="1448.62" y1="1638.88" x2="1448.62" y2="494.521" gradientUnits="userSpaceOnUse">
<stop stop-color="#FF1CF7"/>
<stop offset="1" stop-color="#00F0FF"/>
</linearGradient>
<linearGradient id="paint4_linear_50_60" x1="1398.19" y1="1633.5" x2="1457.53" y2="501.062" gradientUnits="userSpaceOnUse">
<stop stop-color="#FF1CF7"/>
<stop offset="1" stop-color="#00F0FF"/>
</linearGradient>
<linearGradient id="paint5_linear_50_60" x1="1348.35" y1="1626.64" x2="1465.8" y2="509.181" gradientUnits="userSpaceOnUse">
<stop stop-color="#FF1CF7"/>
<stop offset="1" stop-color="#00F0FF"/>
</linearGradient>
<linearGradient id="paint6_linear_50_60" x1="1299.19" y1="1618.36" x2="1473.33" y2="518.828" gradientUnits="userSpaceOnUse">
<stop stop-color="#FF1CF7"/>
<stop offset="1" stop-color="#00F0FF"/>
</linearGradient>
<linearGradient id="paint7_linear_50_60" x1="1250.77" y1="1608.71" x2="1480.07" y2="529.948" gradientUnits="userSpaceOnUse">
<stop stop-color="#FF1CF7"/>
<stop offset="1" stop-color="#00F0FF"/>
</linearGradient>
<linearGradient id="paint8_linear_50_60" x1="1203.17" y1="1597.75" x2="1485.93" y2="542.484" gradientUnits="userSpaceOnUse">
<stop stop-color="#FF1CF7"/>
<stop offset="1" stop-color="#00F0FF"/>
</linearGradient>
<linearGradient id="paint9_linear_50_60" x1="1156.45" y1="1585.52" x2="1490.84" y2="556.372" gradientUnits="userSpaceOnUse">
<stop stop-color="#FF1CF7"/>
<stop offset="1" stop-color="#00F0FF"/>
</linearGradient>
<linearGradient id="paint10_linear_50_60" x1="1110.67" y1="1572.1" x2="1494.74" y2="571.548" gradientUnits="userSpaceOnUse">
<stop stop-color="#FF1CF7"/>
<stop offset="1" stop-color="#00F0FF"/>
</linearGradient>
<linearGradient id="paint11_linear_50_60" x1="1065.88" y1="1557.55" x2="1497.57" y2="587.942" gradientUnits="userSpaceOnUse">
<stop stop-color="#FF1CF7"/>
<stop offset="1" stop-color="#00F0FF"/>
</linearGradient>
<linearGradient id="paint12_linear_50_60" x1="1022.14" y1="1541.92" x2="1499.28" y2="605.485" gradientUnits="userSpaceOnUse">
<stop stop-color="#FF1CF7"/>
<stop offset="1" stop-color="#00F0FF"/>
</linearGradient>
<linearGradient id="paint13_linear_50_60" x1="979.501" y1="1525.3" x2="1499.81" y2="624.102" gradientUnits="userSpaceOnUse">
<stop stop-color="#FF1CF7"/>
<stop offset="1" stop-color="#00F0FF"/>
</linearGradient>
<linearGradient id="paint14_linear_50_60" x1="938" y1="1507.75" x2="1499.11" y2="643.718" gradientUnits="userSpaceOnUse">
<stop stop-color="#FF1CF7"/>
<stop offset="1" stop-color="#00F0FF"/>
</linearGradient>
<linearGradient id="paint15_linear_50_60" x1="897.679" y1="1489.34" x2="1497.14" y2="664.254" gradientUnits="userSpaceOnUse">
<stop stop-color="#FF1CF7"/>
<stop offset="1" stop-color="#00F0FF"/>
</linearGradient>
<linearGradient id="paint16_linear_50_60" x1="858.574" y1="1470.15" x2="1493.87" y2="685.631" gradientUnits="userSpaceOnUse">
<stop stop-color="#FF1CF7"/>
<stop offset="1" stop-color="#00F0FF"/>
</linearGradient>
<linearGradient id="paint17_linear_50_60" x1="820.715" y1="1450.25" x2="1489.25" y2="707.768" gradientUnits="userSpaceOnUse">
<stop stop-color="#FF1CF7"/>
<stop offset="1" stop-color="#00F0FF"/>
</linearGradient>
<linearGradient id="paint18_linear_50_60" x1="784.128" y1="1429.73" x2="1483.27" y2="730.583" gradientUnits="userSpaceOnUse">
<stop stop-color="#FF1CF7"/>
<stop offset="1" stop-color="#00F0FF"/>
</linearGradient>
<linearGradient id="paint19_linear_50_60" x1="748.834" y1="1408.64" x2="1475.9" y2="753.992" gradientUnits="userSpaceOnUse">
<stop stop-color="#FF1CF7"/>
<stop offset="1" stop-color="#00F0FF"/>
</linearGradient>
<linearGradient id="paint20_linear_50_60" x1="714.851" y1="1387.09" x2="1467.12" y2="777.914" gradientUnits="userSpaceOnUse">
<stop stop-color="#FF1CF7"/>
<stop offset="1" stop-color="#00F0FF"/>
</linearGradient>
<linearGradient id="paint21_linear_50_60" x1="682.19" y1="1365.13" x2="1456.92" y2="802.263" gradientUnits="userSpaceOnUse">
<stop stop-color="#FF1CF7"/>
<stop offset="1" stop-color="#00F0FF"/>
</linearGradient>
<linearGradient id="paint22_linear_50_60" x1="650.862" y1="1342.86" x2="1445.28" y2="826.956" gradientUnits="userSpaceOnUse">
<stop stop-color="#FF1CF7"/>
<stop offset="1" stop-color="#00F0FF"/>
</linearGradient>
<linearGradient id="paint23_linear_50_60" x1="620.867" y1="1320.34" x2="1432.21" y2="851.91" gradientUnits="userSpaceOnUse">
<stop stop-color="#FF1CF7"/>
<stop offset="1" stop-color="#00F0FF"/>
</linearGradient>
<linearGradient id="paint24_linear_50_60" x1="592.205" y1="1297.66" x2="1417.71" y2="877.042" gradientUnits="userSpaceOnUse">
<stop stop-color="#FF1CF7"/>
<stop offset="1" stop-color="#00F0FF"/>
</linearGradient>
<linearGradient id="paint25_linear_50_60" x1="564.872" y1="1274.89" x2="1401.78" y2="902.269" gradientUnits="userSpaceOnUse">
<stop stop-color="#FF1CF7"/>
<stop offset="1" stop-color="#00F0FF"/>
</linearGradient>
<linearGradient id="paint26_linear_50_60" x1="538.857" y1="1252.1" x2="1384.44" y2="927.512" gradientUnits="userSpaceOnUse">
<stop stop-color="#FF1CF7"/>
<stop offset="1" stop-color="#00F0FF"/>
</linearGradient>
<linearGradient id="paint27_linear_50_60" x1="514.147" y1="1229.37" x2="1365.69" y2="952.691" gradientUnits="userSpaceOnUse">
<stop stop-color="#FF1CF7"/>
<stop offset="1" stop-color="#00F0FF"/>
</linearGradient>
<linearGradient id="paint28_linear_50_60" x1="490.723" y1="1206.78" x2="1345.56" y2="977.727" gradientUnits="userSpaceOnUse">
<stop stop-color="#FF1CF7"/>
<stop offset="1" stop-color="#00F0FF"/>
</linearGradient>
<linearGradient id="paint29_linear_50_60" x1="468.564" y1="1184.39" x2="1324.06" y2="1002.55" gradientUnits="userSpaceOnUse">
<stop stop-color="#FF1CF7"/>
<stop offset="1" stop-color="#00F0FF"/>
</linearGradient>
<linearGradient id="paint30_linear_50_60" x1="447.643" y1="1162.27" x2="1301.24" y2="1027.07" gradientUnits="userSpaceOnUse">
<stop stop-color="#FF1CF7"/>
<stop offset="1" stop-color="#00F0FF"/>
</linearGradient>
<linearGradient id="paint31_linear_50_60" x1="427.932" y1="1140.49" x2="1277.12" y2="1051.23" gradientUnits="userSpaceOnUse">
<stop stop-color="#FF1CF7"/>
<stop offset="1" stop-color="#00F0FF"/>
</linearGradient>
<linearGradient id="paint32_linear_50_60" x1="409.398" y1="1119.11" x2="1251.73" y2="1074.96" gradientUnits="userSpaceOnUse">
<stop stop-color="#FF1CF7"/>
<stop offset="1" stop-color="#00F0FF"/>
</linearGradient>
<linearGradient id="paint33_linear_50_60" x1="392.003" y1="1098.19" x2="1225.12" y2="1098.19" gradientUnits="userSpaceOnUse">
<stop stop-color="#FF1CF7"/>
<stop offset="1" stop-color="#00F0FF"/>
</linearGradient>
<linearGradient id="paint34_linear_50_60" x1="375.71" y1="1077.8" x2="1197.32" y2="1120.86" gradientUnits="userSpaceOnUse">
<stop stop-color="#FF1CF7"/>
<stop offset="1" stop-color="#00F0FF"/>
</linearGradient>
<linearGradient id="paint35_linear_50_60" x1="360.474" y1="1057.99" x2="1168.39" y2="1142.91" gradientUnits="userSpaceOnUse">
<stop stop-color="#FF1CF7"/>
<stop offset="1" stop-color="#00F0FF"/>
</linearGradient>
<linearGradient id="paint36_linear_50_60" x1="346.25" y1="1038.81" x2="1138.36" y2="1164.27" gradientUnits="userSpaceOnUse">
<stop stop-color="#FF1CF7"/>
<stop offset="1" stop-color="#00F0FF"/>
</linearGradient>
<linearGradient id="paint37_linear_50_60" x1="332.991" y1="1020.32" x2="1107.3" y2="1184.9" gradientUnits="userSpaceOnUse">
<stop stop-color="#FF1CF7"/>
<stop offset="1" stop-color="#00F0FF"/>
</linearGradient>
<linearGradient id="paint38_linear_50_60" x1="320.646" y1="1002.55" x2="1075.26" y2="1204.75" gradientUnits="userSpaceOnUse">
<stop stop-color="#FF1CF7"/>
<stop offset="1" stop-color="#00F0FF"/>
</linearGradient>
<linearGradient id="paint39_linear_50_60" x1="309.162" y1="985.557" x2="1042.3" y2="1223.77" gradientUnits="userSpaceOnUse">
<stop stop-color="#FF1CF7"/>
<stop offset="1" stop-color="#00F0FF"/>
</linearGradient>
<linearGradient id="paint40_linear_50_60" x1="298.485" y1="969.375" x2="1008.46" y2="1241.91" gradientUnits="userSpaceOnUse">
<stop stop-color="#FF1CF7"/>
<stop offset="1" stop-color="#00F0FF"/>
</linearGradient>
<linearGradient id="paint41_linear_50_60" x1="288.558" y1="954.042" x2="973.82" y2="1259.14" gradientUnits="userSpaceOnUse">
<stop stop-color="#FF1CF7"/>
<stop offset="1" stop-color="#00F0FF"/>
</linearGradient>
<linearGradient id="paint42_linear_50_60" x1="279.323" y1="939.59" x2="938.434" y2="1275.42" gradientUnits="userSpaceOnUse">
<stop stop-color="#FF1CF7"/>
<stop offset="1" stop-color="#00F0FF"/>
</linearGradient>
<linearGradient id="paint43_linear_50_60" x1="270.722" y1="926.048" x2="902.369" y2="1290.73" gradientUnits="userSpaceOnUse">
<stop stop-color="#FF1CF7"/>
<stop offset="1" stop-color="#00F0FF"/>
</linearGradient>
<linearGradient id="paint44_linear_50_60" x1="262.693" y1="913.441" x2="865.687" y2="1305.03" gradientUnits="userSpaceOnUse">
<stop stop-color="#FF1CF7"/>
<stop offset="1" stop-color="#00F0FF"/>
</linearGradient>
<linearGradient id="paint45_linear_50_60" x1="255.176" y1="901.79" x2="828.455" y2="1318.3" gradientUnits="userSpaceOnUse">
<stop stop-color="#FF1CF7"/>
<stop offset="1" stop-color="#00F0FF"/>
</linearGradient>
<linearGradient id="paint46_linear_50_60" x1="248.108" y1="891.113" x2="790.741" y2="1330.53" gradientUnits="userSpaceOnUse">
<stop stop-color="#FF1CF7"/>
<stop offset="1" stop-color="#00F0FF"/>
</linearGradient>
<linearGradient id="paint47_linear_50_60" x1="241.428" y1="881.423" x2="752.609" y2="1341.69" gradientUnits="userSpaceOnUse">
<stop stop-color="#FF1CF7"/>
<stop offset="1" stop-color="#00F0FF"/>
</linearGradient>
<linearGradient id="paint48_linear_50_60" x1="235.073" y1="872.729" x2="714.129" y2="1351.79" gradientUnits="userSpaceOnUse">
<stop stop-color="#FF1CF7"/>
<stop offset="1" stop-color="#00F0FF"/>
</linearGradient>
<linearGradient id="paint49_linear_50_60" x1="228.98" y1="865.039" x2="675.366" y2="1360.8" gradientUnits="userSpaceOnUse">
<stop stop-color="#FF1CF7"/>
<stop offset="1" stop-color="#00F0FF"/>
</linearGradient>
<linearGradient id="paint50_linear_50_60" x1="223.089" y1="858.354" x2="636.387" y2="1368.73" gradientUnits="userSpaceOnUse">
<stop stop-color="#FF1CF7"/>
<stop offset="1" stop-color="#00F0FF"/>
</linearGradient>
<linearGradient id="paint51_linear_50_60" x1="217.336" y1="852.672" x2="597.258" y2="1375.59" gradientUnits="userSpaceOnUse">
<stop stop-color="#FF1CF7"/>
<stop offset="1" stop-color="#00F0FF"/>
</linearGradient>
<linearGradient id="paint52_linear_50_60" x1="211.662" y1="847.989" x2="558.046" y2="1381.37" gradientUnits="userSpaceOnUse">
<stop stop-color="#FF1CF7"/>
<stop offset="1" stop-color="#00F0FF"/>
</linearGradient>
<linearGradient id="paint53_linear_50_60" x1="206.007" y1="844.295" x2="518.813" y2="1386.09" gradientUnits="userSpaceOnUse">
<stop stop-color="#FF1CF7"/>
<stop offset="1" stop-color="#00F0FF"/>
</linearGradient>
<linearGradient id="paint54_linear_50_60" x1="200.311" y1="841.578" x2="479.623" y2="1389.76" gradientUnits="userSpaceOnUse">
<stop stop-color="#FF1CF7"/>
<stop offset="1" stop-color="#00F0FF"/>
</linearGradient>
<linearGradient id="paint55_linear_50_60" x1="194.518" y1="839.824" x2="440.537" y2="1392.39" gradientUnits="userSpaceOnUse">
<stop stop-color="#FF1CF7"/>
<stop offset="1" stop-color="#00F0FF"/>
</linearGradient>
<linearGradient id="paint56_linear_50_60" x1="188.572" y1="839.012" x2="401.617" y2="1394.01" gradientUnits="userSpaceOnUse">
<stop stop-color="#FF1CF7"/>
<stop offset="1" stop-color="#00F0FF"/>
</linearGradient>
<linearGradient id="paint57_linear_50_60" x1="182.419" y1="839.121" x2="362.919" y2="1394.64" gradientUnits="userSpaceOnUse">
<stop stop-color="#FF1CF7"/>
<stop offset="1" stop-color="#00F0FF"/>
</linearGradient>
<linearGradient id="paint58_linear_50_60" x1="176.006" y1="840.125" x2="324.5" y2="1394.31" gradientUnits="userSpaceOnUse">
<stop stop-color="#FF1CF7"/>
<stop offset="1" stop-color="#00F0FF"/>
</linearGradient>
<linearGradient id="paint59_linear_50_60" x1="169.284" y1="841.997" x2="286.414" y2="1393.05" gradientUnits="userSpaceOnUse">
<stop stop-color="#FF1CF7"/>
<stop offset="1" stop-color="#00F0FF"/>
</linearGradient>
<linearGradient id="paint60_linear_50_60" x1="162.205" y1="844.705" x2="248.712" y2="1390.88" gradientUnits="userSpaceOnUse">
<stop stop-color="#FF1CF7"/>
<stop offset="1" stop-color="#00F0FF"/>
</linearGradient>
<linearGradient id="paint61_linear_50_60" x1="154.723" y1="848.217" x2="211.442" y2="1387.86" gradientUnits="userSpaceOnUse">
<stop stop-color="#FF1CF7"/>
<stop offset="1" stop-color="#00F0FF"/>
</linearGradient>
<linearGradient id="paint62_linear_50_60" x1="146.796" y1="852.496" x2="174.651" y2="1384" gradientUnits="userSpaceOnUse">
<stop stop-color="#FF1CF7"/>
<stop offset="1" stop-color="#00F0FF"/>
</linearGradient>
<linearGradient id="paint63_linear_50_60" x1="138.383" y1="857.505" x2="138.383" y2="1379.37" gradientUnits="userSpaceOnUse">
<stop stop-color="#FF1CF7"/>
<stop offset="1" stop-color="#00F0FF"/>
</linearGradient>
<linearGradient id="paint64_linear_50_60" x1="129.446" y1="863.203" x2="102.677" y2="1373.99" gradientUnits="userSpaceOnUse">
<stop stop-color="#FF1CF7"/>
<stop offset="1" stop-color="#00F0FF"/>
</linearGradient>
<linearGradient id="paint65_linear_50_60" x1="119.952" y1="869.549" x2="67.5713" y2="1367.92" gradientUnits="userSpaceOnUse">
<stop stop-color="#FF1CF7"/>
<stop offset="1" stop-color="#00F0FF"/>
</linearGradient>
<linearGradient id="paint66_linear_50_60" x1="109.868" y1="876.498" x2="33.0993" y2="1361.19" gradientUnits="userSpaceOnUse">
<stop stop-color="#FF1CF7"/>
<stop offset="1" stop-color="#00F0FF"/>
</linearGradient>
<linearGradient id="paint67_linear_50_60" x1="99.1652" y1="884.005" x2="-0.707829" y2="1353.87" gradientUnits="userSpaceOnUse">
<stop stop-color="#FF1CF7"/>
<stop offset="1" stop-color="#00F0FF"/>
</linearGradient>
<linearGradient id="paint68_linear_50_60" x1="87.8184" y1="892.025" x2="-33.8233" y2="1346" gradientUnits="userSpaceOnUse">
<stop stop-color="#FF1CF7"/>
<stop offset="1" stop-color="#00F0FF"/>
</linearGradient>
</defs>
</svg>
